<svg width="196" height="28" viewBox="0 0 196 28" fill="none" xmlns="http://www.w3.org/2000/svg">
<path d="M2.85692 27C2.35292 27 1.88492 26.88 1.45292 26.64C1.02092 26.376 0.80492 25.992 0.80492 25.488V2.196C0.80492 1.692 1.02092 1.32 1.45292 1.08C1.88492 0.816 2.35292 0.684 2.85692 0.684H15.6729C16.2009 0.684 16.5729 0.899999 16.7889 1.332C17.0289 1.764 17.1489 2.22 17.1489 2.7C17.1489 3.276 17.0169 3.768 16.7529 4.176C16.5129 4.584 16.1529 4.788 15.6729 4.788H5.48492V11.988H10.9569C11.4369 11.988 11.7969 12.18 12.0369 12.564C12.3009 12.924 12.4329 13.356 12.4329 13.86C12.4329 14.268 12.3129 14.676 12.0729 15.084C11.8569 15.468 11.4849 15.66 10.9569 15.66H5.48492V22.896H15.6729C16.1529 22.896 16.5129 23.1 16.7529 23.508C17.0169 23.916 17.1489 24.408 17.1489 24.984C17.1489 25.464 17.0289 25.92 16.7889 26.352C16.5729 26.784 16.2009 27 15.6729 27H2.85692ZM33.4668 27.216C32.7948 27.216 32.1588 27.084 31.5588 26.82C30.9828 26.556 30.6228 26.16 30.4788 25.632L23.4948 2.988C23.4468 2.82 23.4228 2.7 23.4228 2.628C23.4228 2.244 23.5788 1.908 23.8908 1.62C24.2028 1.332 24.5868 1.104 25.0428 0.935999C25.5228 0.767999 25.9788 0.684 26.4108 0.684C26.7948 0.684 27.1308 0.756 27.4188 0.899999C27.7068 1.02 27.8868 1.26 27.9588 1.62L33.4668 21.132L38.9388 1.62C39.0588 1.26 39.2508 1.02 39.5148 0.899999C39.8028 0.756 40.1388 0.684 40.5228 0.684C40.9548 0.684 41.3988 0.767999 41.8548 0.935999C42.3108 1.104 42.6948 1.332 43.0068 1.62C43.3428 1.908 43.5108 2.244 43.5108 2.628C43.5108 2.676 43.4988 2.736 43.4748 2.808C43.4748 2.856 43.4628 2.916 43.4388 2.988L36.4908 25.632C36.3468 26.16 35.9748 26.556 35.3748 26.82C34.7988 27.084 34.1628 27.216 33.4668 27.216ZM53.4186 27C52.9146 27 52.4466 26.88 52.0146 26.64C51.5826 26.376 51.3666 25.992 51.3666 25.488V2.196C51.3666 1.692 51.5826 1.32 52.0146 1.08C52.4466 0.816 52.9146 0.684 53.4186 0.684H66.2346C66.7626 0.684 67.1346 0.899999 67.3506 1.332C67.5906 1.764 67.7106 2.22 67.7106 2.7C67.7106 3.276 67.5786 3.768 67.3146 4.176C67.0746 4.584 66.7146 4.788 66.2346 4.788H56.0466V11.988H61.5186C61.9986 11.988 62.3586 12.18 62.5986 12.564C62.8626 12.924 62.9946 13.356 62.9946 13.86C62.9946 14.268 62.8746 14.676 62.6346 15.084C62.4186 15.468 62.0466 15.66 61.5186 15.66H56.0466V22.896H66.2346C66.7146 22.896 67.0746 23.1 67.3146 23.508C67.5786 23.916 67.7106 24.408 67.7106 24.984C67.7106 25.464 67.5906 25.92 67.3506 26.352C67.1346 26.784 66.7626 27 66.2346 27H53.4186ZM78.1965 27C77.6205 27 77.0805 26.88 76.5765 26.64C76.0965 26.376 75.8565 25.992 75.8565 25.488V2.16C75.8565 1.656 76.0965 1.284 76.5765 1.044C77.0805 0.804 77.6205 0.684 78.1965 0.684C78.7725 0.684 79.2405 0.744 79.6005 0.864C79.9845 0.983999 80.3325 1.224 80.6445 1.584C80.9805 1.92 81.3285 2.448 81.6885 3.168L88.6365 16.596V2.16C88.6365 1.632 88.8765 1.26 89.3565 1.044C89.8605 0.804 90.4005 0.684 90.9765 0.684C91.5765 0.684 92.1165 0.804 92.5965 1.044C93.0765 1.26 93.3165 1.632 93.3165 2.16V25.488C93.3165 25.992 93.0765 26.376 92.5965 26.64C92.1165 26.88 91.5765 27 90.9765 27C90.4245 27 89.9085 26.892 89.4285 26.676C88.9725 26.46 88.6005 26.076 88.3125 25.524L80.5365 11.052V25.488C80.5365 25.992 80.2965 26.376 79.8165 26.64C79.3365 26.88 78.7965 27 78.1965 27ZM110.361 27C109.761 27 109.221 26.88 108.741 26.64C108.261 26.376 108.021 25.992 108.021 25.488V4.896H102.729C102.273 4.896 101.913 4.68 101.649 4.248C101.385 3.816 101.253 3.324 101.253 2.772C101.253 2.268 101.373 1.8 101.613 1.368C101.853 0.912 102.225 0.684 102.729 0.684H117.957C118.485 0.684 118.857 0.912 119.073 1.368C119.313 1.8 119.433 2.268 119.433 2.772C119.433 3.324 119.301 3.816 119.037 4.248C118.797 4.68 118.437 4.896 117.957 4.896H112.701V25.488C112.701 25.992 112.449 26.376 111.945 26.64C111.465 26.88 110.937 27 110.361 27ZM129.384 27C128.88 27 128.412 26.88 127.98 26.64C127.548 26.376 127.332 25.992 127.332 25.488V2.196C127.332 1.692 127.548 1.32 127.98 1.08C128.412 0.816 128.88 0.684 129.384 0.684H142.2C142.728 0.684 143.1 0.899999 143.316 1.332C143.556 1.764 143.676 2.22 143.676 2.7C143.676 3.276 143.544 3.768 143.28 4.176C143.04 4.584 142.68 4.788 142.2 4.788H132.012V11.988H137.484C137.964 11.988 138.324 12.18 138.564 12.564C138.828 12.924 138.96 13.356 138.96 13.86C138.96 14.268 138.84 14.676 138.6 15.084C138.384 15.468 138.012 15.66 137.484 15.66H132.012V22.896H142.2C142.68 22.896 143.04 23.1 143.28 23.508C143.544 23.916 143.676 24.408 143.676 24.984C143.676 25.464 143.556 25.92 143.316 26.352C143.1 26.784 142.728 27 142.2 27H129.384ZM166.258 27.18C165.946 27.18 165.634 27.084 165.322 26.892C165.034 26.7 164.806 26.424 164.638 26.064L159.526 16.128H156.502V25.488C156.502 25.992 156.262 26.376 155.782 26.64C155.302 26.88 154.762 27 154.162 27C153.586 27 153.046 26.88 152.542 26.64C152.062 26.376 151.822 25.992 151.822 25.488V2.16C151.822 1.752 151.954 1.404 152.218 1.116C152.506 0.827999 152.878 0.684 153.334 0.684H160.462C162.046 0.684 163.474 0.912 164.746 1.368C166.042 1.824 167.074 2.604 167.842 3.708C168.61 4.788 168.994 6.288 168.994 8.208C168.994 9.6 168.79 10.788 168.382 11.772C167.974 12.732 167.41 13.512 166.69 14.112C165.994 14.688 165.19 15.12 164.278 15.408L169.03 24.156C169.078 24.252 169.114 24.36 169.138 24.48C169.162 24.576 169.174 24.66 169.174 24.732C169.174 25.116 169.03 25.5 168.742 25.884C168.454 26.268 168.082 26.58 167.626 26.82C167.194 27.06 166.738 27.18 166.258 27.18ZM156.502 12.456H160.462C161.638 12.456 162.574 12.168 163.27 11.592C163.966 11.016 164.314 10.032 164.314 8.64C164.314 7.2 163.966 6.204 163.27 5.652C162.574 5.076 161.638 4.788 160.462 4.788H156.502V12.456ZM180.023 27C179.447 27 178.907 26.88 178.403 26.64C177.923 26.376 177.683 25.992 177.683 25.488V2.16C177.683 1.656 177.923 1.284 178.403 1.044C178.907 0.804 179.447 0.684 180.023 0.684C180.599 0.684 181.067 0.744 181.427 0.864C181.811 0.983999 182.159 1.224 182.471 1.584C182.807 1.92 183.155 2.448 183.515 3.168L190.463 16.596V2.16C190.463 1.632 190.703 1.26 191.183 1.044C191.687 0.804 192.227 0.684 192.803 0.684C193.403 0.684 193.943 0.804 194.423 1.044C194.903 1.26 195.143 1.632 195.143 2.16V25.488C195.143 25.992 194.903 26.376 194.423 26.64C193.943 26.88 193.403 27 192.803 27C192.251 27 191.735 26.892 191.255 26.676C190.799 26.46 190.427 26.076 190.139 25.524L182.363 11.052V25.488C182.363 25.992 182.123 26.376 181.643 26.64C181.163 26.88 180.623 27 180.023 27Z" fill="white"/>
</svg>
