<svg width="288" height="288" viewBox="0 0 288 288" fill="none" xmlns="http://www.w3.org/2000/svg">
<rect width="288" height="288" fill="#6C6767"/>
<path d="M48.8569 233.25C48.3529 233.25 47.8849 233.13 47.4529 232.89C47.0209 232.626 46.8049 232.242 46.8049 231.738V208.446C46.8049 207.942 47.0209 207.57 47.4529 207.33C47.8849 207.066 48.3529 206.934 48.8569 206.934H61.6729C62.2009 206.934 62.5729 207.15 62.7889 207.582C63.0289 208.014 63.1489 208.47 63.1489 208.95C63.1489 209.526 63.0169 210.018 62.7529 210.426C62.5129 210.834 62.1529 211.038 61.6729 211.038H51.4849V218.238H56.9569C57.4369 218.238 57.7969 218.43 58.0369 218.814C58.3009 219.174 58.4329 219.606 58.4329 220.11C58.4329 220.518 58.3129 220.926 58.0729 221.334C57.8569 221.718 57.4849 221.91 56.9569 221.91H51.4849V229.146H61.6729C62.1529 229.146 62.5129 229.35 62.7529 229.758C63.0169 230.166 63.1489 230.658 63.1489 231.234C63.1489 231.714 63.0289 232.17 62.7889 232.602C62.5729 233.034 62.2009 233.25 61.6729 233.25H48.8569ZM79.4668 233.466C78.7948 233.466 78.1588 233.334 77.5588 233.07C76.9828 232.806 76.6228 232.41 76.4788 231.882L69.4948 209.238C69.4468 209.07 69.4228 208.95 69.4228 208.878C69.4228 208.494 69.5788 208.158 69.8908 207.87C70.2028 207.582 70.5868 207.354 71.0428 207.186C71.5228 207.018 71.9788 206.934 72.4108 206.934C72.7948 206.934 73.1308 207.006 73.4188 207.15C73.7068 207.27 73.8868 207.51 73.9588 207.87L79.4668 227.382L84.9388 207.87C85.0588 207.51 85.2508 207.27 85.5148 207.15C85.8028 207.006 86.1388 206.934 86.5228 206.934C86.9548 206.934 87.3988 207.018 87.8548 207.186C88.3108 207.354 88.6948 207.582 89.0068 207.87C89.3428 208.158 89.5108 208.494 89.5108 208.878C89.5108 208.926 89.4988 208.986 89.4748 209.058C89.4748 209.106 89.4628 209.166 89.4388 209.238L82.4908 231.882C82.3468 232.41 81.9748 232.806 81.3748 233.07C80.7988 233.334 80.1628 233.466 79.4668 233.466ZM99.4186 233.25C98.9146 233.25 98.4466 233.13 98.0146 232.89C97.5826 232.626 97.3666 232.242 97.3666 231.738V208.446C97.3666 207.942 97.5826 207.57 98.0146 207.33C98.4466 207.066 98.9146 206.934 99.4186 206.934H112.235C112.763 206.934 113.135 207.15 113.351 207.582C113.591 208.014 113.711 208.47 113.711 208.95C113.711 209.526 113.579 210.018 113.315 210.426C113.075 210.834 112.715 211.038 112.235 211.038H102.047V218.238H107.519C107.999 218.238 108.359 218.43 108.599 218.814C108.863 219.174 108.995 219.606 108.995 220.11C108.995 220.518 108.875 220.926 108.635 221.334C108.419 221.718 108.047 221.91 107.519 221.91H102.047V229.146H112.235C112.715 229.146 113.075 229.35 113.315 229.758C113.579 230.166 113.711 230.658 113.711 231.234C113.711 231.714 113.591 232.17 113.351 232.602C113.135 233.034 112.763 233.25 112.235 233.25H99.4186ZM124.196 233.25C123.62 233.25 123.08 233.13 122.576 232.89C122.096 232.626 121.856 232.242 121.856 231.738V208.41C121.856 207.906 122.096 207.534 122.576 207.294C123.08 207.054 123.62 206.934 124.196 206.934C124.772 206.934 125.24 206.994 125.6 207.114C125.984 207.234 126.332 207.474 126.644 207.834C126.98 208.17 127.328 208.698 127.688 209.418L134.636 222.846V208.41C134.636 207.882 134.876 207.51 135.356 207.294C135.86 207.054 136.4 206.934 136.976 206.934C137.576 206.934 138.116 207.054 138.596 207.294C139.076 207.51 139.316 207.882 139.316 208.41V231.738C139.316 232.242 139.076 232.626 138.596 232.89C138.116 233.13 137.576 233.25 136.976 233.25C136.424 233.25 135.908 233.142 135.428 232.926C134.972 232.71 134.6 232.326 134.312 231.774L126.536 217.302V231.738C126.536 232.242 126.296 232.626 125.816 232.89C125.336 233.13 124.796 233.25 124.196 233.25ZM156.361 233.25C155.761 233.25 155.221 233.13 154.741 232.89C154.261 232.626 154.021 232.242 154.021 231.738V211.146H148.729C148.273 211.146 147.913 210.93 147.649 210.498C147.385 210.066 147.253 209.574 147.253 209.022C147.253 208.518 147.373 208.05 147.613 207.618C147.853 207.162 148.225 206.934 148.729 206.934H163.957C164.485 206.934 164.857 207.162 165.073 207.618C165.313 208.05 165.433 208.518 165.433 209.022C165.433 209.574 165.301 210.066 165.037 210.498C164.797 210.93 164.437 211.146 163.957 211.146H158.701V231.738C158.701 232.242 158.449 232.626 157.945 232.89C157.465 233.13 156.937 233.25 156.361 233.25ZM175.384 233.25C174.88 233.25 174.412 233.13 173.98 232.89C173.548 232.626 173.332 232.242 173.332 231.738V208.446C173.332 207.942 173.548 207.57 173.98 207.33C174.412 207.066 174.88 206.934 175.384 206.934H188.2C188.728 206.934 189.1 207.15 189.316 207.582C189.556 208.014 189.676 208.47 189.676 208.95C189.676 209.526 189.544 210.018 189.28 210.426C189.04 210.834 188.68 211.038 188.2 211.038H178.012V218.238H183.484C183.964 218.238 184.324 218.43 184.564 218.814C184.828 219.174 184.96 219.606 184.96 220.11C184.96 220.518 184.84 220.926 184.6 221.334C184.384 221.718 184.012 221.91 183.484 221.91H178.012V229.146H188.2C188.68 229.146 189.04 229.35 189.28 229.758C189.544 230.166 189.676 230.658 189.676 231.234C189.676 231.714 189.556 232.17 189.316 232.602C189.1 233.034 188.728 233.25 188.2 233.25H175.384ZM212.258 233.43C211.946 233.43 211.634 233.334 211.322 233.142C211.034 232.95 210.806 232.674 210.638 232.314L205.526 222.378H202.502V231.738C202.502 232.242 202.262 232.626 201.782 232.89C201.302 233.13 200.762 233.25 200.162 233.25C199.586 233.25 199.046 233.13 198.542 232.89C198.062 232.626 197.822 232.242 197.822 231.738V208.41C197.822 208.002 197.954 207.654 198.218 207.366C198.506 207.078 198.878 206.934 199.334 206.934H206.462C208.046 206.934 209.474 207.162 210.746 207.618C212.042 208.074 213.074 208.854 213.842 209.958C214.61 211.038 214.994 212.538 214.994 214.458C214.994 215.85 214.79 217.038 214.382 218.022C213.974 218.982 213.41 219.762 212.69 220.362C211.994 220.938 211.19 221.37 210.278 221.658L215.03 230.406C215.078 230.502 215.114 230.61 215.138 230.73C215.162 230.826 215.174 230.91 215.174 230.982C215.174 231.366 215.03 231.75 214.742 232.134C214.454 232.518 214.082 232.83 213.626 233.07C213.194 233.31 212.738 233.43 212.258 233.43ZM202.502 218.706H206.462C207.638 218.706 208.574 218.418 209.27 217.842C209.966 217.266 210.314 216.282 210.314 214.89C210.314 213.45 209.966 212.454 209.27 211.902C208.574 211.326 207.638 211.038 206.462 211.038H202.502V218.706ZM226.023 233.25C225.447 233.25 224.907 233.13 224.403 232.89C223.923 232.626 223.683 232.242 223.683 231.738V208.41C223.683 207.906 223.923 207.534 224.403 207.294C224.907 207.054 225.447 206.934 226.023 206.934C226.599 206.934 227.067 206.994 227.427 207.114C227.811 207.234 228.159 207.474 228.471 207.834C228.807 208.17 229.155 208.698 229.515 209.418L236.463 222.846V208.41C236.463 207.882 236.703 207.51 237.183 207.294C237.687 207.054 238.227 206.934 238.803 206.934C239.403 206.934 239.943 207.054 240.423 207.294C240.903 207.51 241.143 207.882 241.143 208.41V231.738C241.143 232.242 240.903 232.626 240.423 232.89C239.943 233.13 239.403 233.25 238.803 233.25C238.251 233.25 237.735 233.142 237.255 232.926C236.799 232.71 236.427 232.326 236.139 231.774L228.363 217.302V231.738C228.363 232.242 228.123 232.626 227.643 232.89C227.163 233.13 226.623 233.25 226.023 233.25Z" fill="white"/>
<g filter="url(#filter0_d_20_31)">
<path d="M191.676 148.341H228.19C229.676 111 198.828 110.285 183.218 114.596C188.499 120.38 191.057 139.503 191.676 148.341Z" fill="#1D1D34"/>
<path d="M191.676 148.341H228.19C229.676 111 198.828 110.285 183.218 114.596C188.499 120.38 191.057 139.503 191.676 148.341Z" stroke="#000553" stroke-width="0.201488"/>
</g>
<g filter="url(#filter1_d_20_31)">
<path d="M144.191 92.6255C126.964 92.6255 112.998 77.7914 112.998 59.4925C112.998 41.1936 126.964 26.3594 144.191 26.3594C161.418 26.3594 175.383 41.1936 175.383 59.4925C175.383 77.7914 161.418 92.6255 144.191 92.6255Z" fill="#F1B49B"/>
</g>
<g filter="url(#filter2_d_20_31)">
<path d="M197.671 106.814C185.365 106.814 175.389 96.217 175.389 83.1452C175.389 70.0734 185.365 59.4766 197.671 59.4766C209.977 59.4766 219.953 70.0734 219.953 83.1452C219.953 96.217 209.977 106.814 197.671 106.814Z" fill="#F1B49B"/>
</g>
<g filter="url(#filter3_d_20_31)">
<path d="M89.3819 106.814C77.0758 106.814 67.0997 96.217 67.0997 83.1452C67.0997 70.0734 77.0758 59.4766 89.3819 59.4766C101.688 59.4766 111.664 70.0734 111.664 83.1452C111.664 96.217 101.688 106.814 89.3819 106.814Z" fill="#F1B49B"/>
</g>
<g filter="url(#filter4_d_20_31)">
<path d="M103.79 159.946H185.688C185.688 148.199 183.494 141.226 180.328 130.508C172.326 106.654 156.119 99.7624 151.237 100.346H135.146C105.606 108.936 101.933 143.658 103.79 159.946Z" fill="#0F0F1B"/>
<path d="M103.79 159.946H185.688C185.688 148.199 183.494 141.226 180.328 130.508C172.326 106.654 156.119 99.7624 151.237 100.346H135.146C105.606 108.936 101.933 143.658 103.79 159.946Z" fill="#1D1D34" stroke="#000553" stroke-width="0.201488"/>
</g>
<g filter="url(#filter5_d_20_31)">
<path d="M93.2022 112.311C98.3505 111.896 105.533 115.113 104.916 115.415C100.928 118.418 97.1979 141.488 96.3145 153.321H59.5742C59.2974 150.166 60.8219 141.16 62.0703 131.292C63.0682 123.398 60.1211 115.348 58.5229 112.311C54.4919 104.649 48.5976 89.8357 48.5976 79.6199L48.1368 56.479C51.4559 49.3292 54.2074 53.5 55.1678 56.479C55.2441 60.479 55.7902 70.7071 57.3571 79.6199C59.3168 90.7609 67.8459 102.392 73.0324 107.289C78.2188 112.186 85.2844 112.948 93.2022 112.311Z" fill="#1D1D34"/>
<path d="M93.2022 112.311C98.3505 111.896 105.533 115.113 104.916 115.415C100.928 118.418 97.1979 141.488 96.3145 153.321H59.5742C59.2974 150.166 60.8219 141.16 62.0703 131.292C63.0682 123.398 60.1211 115.348 58.5229 112.311C54.4919 104.649 48.5976 89.8357 48.5976 79.6199L48.1368 56.479C51.4559 49.3292 54.2074 53.5 55.1678 56.479C55.2441 60.479 55.7902 70.7071 57.3571 79.6199C59.3168 90.7609 67.8459 102.392 73.0324 107.289C78.2188 112.186 85.2844 112.948 93.2022 112.311Z" stroke="#000553" stroke-width="0.201488"/>
</g>
<defs>
<filter id="filter0_d_20_31" x="179.895" y="112.695" width="51.5845" height="42.0142" filterUnits="userSpaceOnUse" color-interpolation-filters="sRGB">
<feFlood flood-opacity="0" result="BackgroundImageFix"/>
<feColorMatrix in="SourceAlpha" type="matrix" values="0 0 0 0 0 0 0 0 0 0 0 0 0 0 0 0 0 0 127 0" result="hardAlpha"/>
<feOffset dy="3.136"/>
<feGaussianBlur stdDeviation="1.568"/>
<feColorMatrix type="matrix" values="0 0 0 0 0 0 0 0 0 0 0 0 0 0 0 0 0 0 0.25 0"/>
<feBlend mode="normal" in2="BackgroundImageFix" result="effect1_dropShadow_20_31"/>
<feBlend mode="normal" in="SourceGraphic" in2="effect1_dropShadow_20_31" result="shape"/>
</filter>
<filter id="filter1_d_20_31" x="109.864" y="26.3594" width="68.6548" height="72.5376" filterUnits="userSpaceOnUse" color-interpolation-filters="sRGB">
<feFlood flood-opacity="0" result="BackgroundImageFix"/>
<feColorMatrix in="SourceAlpha" type="matrix" values="0 0 0 0 0 0 0 0 0 0 0 0 0 0 0 0 0 0 127 0" result="hardAlpha"/>
<feOffset dy="3.136"/>
<feGaussianBlur stdDeviation="1.568"/>
<feColorMatrix type="matrix" values="0 0 0 0 0 0 0 0 0 0 0 0 0 0 0 0 0 0 0.25 0"/>
<feBlend mode="normal" in2="BackgroundImageFix" result="effect1_dropShadow_20_31"/>
<feBlend mode="normal" in="SourceGraphic" in2="effect1_dropShadow_20_31" result="shape"/>
</filter>
<filter id="filter2_d_20_31" x="172.255" y="59.4766" width="50.8345" height="53.6079" filterUnits="userSpaceOnUse" color-interpolation-filters="sRGB">
<feFlood flood-opacity="0" result="BackgroundImageFix"/>
<feColorMatrix in="SourceAlpha" type="matrix" values="0 0 0 0 0 0 0 0 0 0 0 0 0 0 0 0 0 0 127 0" result="hardAlpha"/>
<feOffset dy="3.136"/>
<feGaussianBlur stdDeviation="1.568"/>
<feColorMatrix type="matrix" values="0 0 0 0 0 0 0 0 0 0 0 0 0 0 0 0 0 0 0.25 0"/>
<feBlend mode="normal" in2="BackgroundImageFix" result="effect1_dropShadow_20_31"/>
<feBlend mode="normal" in="SourceGraphic" in2="effect1_dropShadow_20_31" result="shape"/>
</filter>
<filter id="filter3_d_20_31" x="63.9656" y="59.4766" width="50.8345" height="53.6079" filterUnits="userSpaceOnUse" color-interpolation-filters="sRGB">
<feFlood flood-opacity="0" result="BackgroundImageFix"/>
<feColorMatrix in="SourceAlpha" type="matrix" values="0 0 0 0 0 0 0 0 0 0 0 0 0 0 0 0 0 0 127 0" result="hardAlpha"/>
<feOffset dy="3.136"/>
<feGaussianBlur stdDeviation="1.568"/>
<feColorMatrix type="matrix" values="0 0 0 0 0 0 0 0 0 0 0 0 0 0 0 0 0 0 0.25 0"/>
<feBlend mode="normal" in2="BackgroundImageFix" result="effect1_dropShadow_20_31"/>
<feBlend mode="normal" in="SourceGraphic" in2="effect1_dropShadow_20_31" result="shape"/>
</filter>
<filter id="filter4_d_20_31" x="100.153" y="100.211" width="88.772" height="66.1079" filterUnits="userSpaceOnUse" color-interpolation-filters="sRGB">
<feFlood flood-opacity="0" result="BackgroundImageFix"/>
<feColorMatrix in="SourceAlpha" type="matrix" values="0 0 0 0 0 0 0 0 0 0 0 0 0 0 0 0 0 0 127 0" result="hardAlpha"/>
<feOffset dy="3.136"/>
<feGaussianBlur stdDeviation="1.568"/>
<feColorMatrix type="matrix" values="0 0 0 0 0 0 0 0 0 0 0 0 0 0 0 0 0 0 0.25 0"/>
<feBlend mode="normal" in2="BackgroundImageFix" result="effect1_dropShadow_20_31"/>
<feBlend mode="normal" in="SourceGraphic" in2="effect1_dropShadow_20_31" result="shape"/>
</filter>
<filter id="filter5_d_20_31" x="44.9031" y="52.4297" width="63.2876" height="107.264" filterUnits="userSpaceOnUse" color-interpolation-filters="sRGB">
<feFlood flood-opacity="0" result="BackgroundImageFix"/>
<feColorMatrix in="SourceAlpha" type="matrix" values="0 0 0 0 0 0 0 0 0 0 0 0 0 0 0 0 0 0 127 0" result="hardAlpha"/>
<feOffset dy="3.136"/>
<feGaussianBlur stdDeviation="1.568"/>
<feColorMatrix type="matrix" values="0 0 0 0 0 0 0 0 0 0 0 0 0 0 0 0 0 0 0.25 0"/>
<feBlend mode="normal" in2="BackgroundImageFix" result="effect1_dropShadow_20_31"/>
<feBlend mode="normal" in="SourceGraphic" in2="effect1_dropShadow_20_31" result="shape"/>
</filter>
</defs>
</svg>
