<svg width="240" height="214" viewBox="0 0 240 214" fill="none" xmlns="http://www.w3.org/2000/svg">
<path d="M24.8569 205C24.3529 205 23.8849 204.88 23.4529 204.64C23.0209 204.376 22.8049 203.992 22.8049 203.488V180.196C22.8049 179.692 23.0209 179.32 23.4529 179.08C23.8849 178.816 24.3529 178.684 24.8569 178.684H37.6729C38.2009 178.684 38.5729 178.9 38.7889 179.332C39.0289 179.764 39.1489 180.22 39.1489 180.7C39.1489 181.276 39.0169 181.768 38.7529 182.176C38.5129 182.584 38.1529 182.788 37.6729 182.788H27.4849V189.988H32.9569C33.4369 189.988 33.7969 190.18 34.0369 190.564C34.3009 190.924 34.4329 191.356 34.4329 191.86C34.4329 192.268 34.3129 192.676 34.0729 193.084C33.8569 193.468 33.4849 193.66 32.9569 193.66H27.4849V200.896H37.6729C38.1529 200.896 38.5129 201.1 38.7529 201.508C39.0169 201.916 39.1489 202.408 39.1489 202.984C39.1489 203.464 39.0289 203.92 38.7889 204.352C38.5729 204.784 38.2009 205 37.6729 205H24.8569ZM55.4668 205.216C54.7948 205.216 54.1588 205.084 53.5588 204.82C52.9828 204.556 52.6228 204.16 52.4788 203.632L45.4948 180.988C45.4468 180.82 45.4228 180.7 45.4228 180.628C45.4228 180.244 45.5788 179.908 45.8908 179.62C46.2028 179.332 46.5868 179.104 47.0428 178.936C47.5228 178.768 47.9788 178.684 48.4108 178.684C48.7948 178.684 49.1308 178.756 49.4188 178.9C49.7068 179.02 49.8868 179.26 49.9588 179.62L55.4668 199.132L60.9388 179.62C61.0588 179.26 61.2508 179.02 61.5148 178.9C61.8028 178.756 62.1388 178.684 62.5228 178.684C62.9548 178.684 63.3988 178.768 63.8548 178.936C64.3108 179.104 64.6948 179.332 65.0068 179.62C65.3428 179.908 65.5108 180.244 65.5108 180.628C65.5108 180.676 65.4988 180.736 65.4748 180.808C65.4748 180.856 65.4628 180.916 65.4388 180.988L58.4908 203.632C58.3468 204.16 57.9748 204.556 57.3748 204.82C56.7988 205.084 56.1628 205.216 55.4668 205.216ZM75.4186 205C74.9146 205 74.4466 204.88 74.0146 204.64C73.5826 204.376 73.3666 203.992 73.3666 203.488V180.196C73.3666 179.692 73.5826 179.32 74.0146 179.08C74.4466 178.816 74.9146 178.684 75.4186 178.684H88.2346C88.7626 178.684 89.1346 178.9 89.3506 179.332C89.5906 179.764 89.7106 180.22 89.7106 180.7C89.7106 181.276 89.5786 181.768 89.3146 182.176C89.0746 182.584 88.7146 182.788 88.2346 182.788H78.0466V189.988H83.5186C83.9986 189.988 84.3586 190.18 84.5986 190.564C84.8626 190.924 84.9946 191.356 84.9946 191.86C84.9946 192.268 84.8746 192.676 84.6346 193.084C84.4186 193.468 84.0466 193.66 83.5186 193.66H78.0466V200.896H88.2346C88.7146 200.896 89.0746 201.1 89.3146 201.508C89.5786 201.916 89.7106 202.408 89.7106 202.984C89.7106 203.464 89.5906 203.92 89.3506 204.352C89.1346 204.784 88.7626 205 88.2346 205H75.4186ZM100.196 205C99.6205 205 99.0805 204.88 98.5765 204.64C98.0965 204.376 97.8565 203.992 97.8565 203.488V180.16C97.8565 179.656 98.0965 179.284 98.5765 179.044C99.0805 178.804 99.6205 178.684 100.196 178.684C100.772 178.684 101.24 178.744 101.6 178.864C101.984 178.984 102.332 179.224 102.644 179.584C102.98 179.92 103.328 180.448 103.688 181.168L110.636 194.596V180.16C110.636 179.632 110.876 179.26 111.356 179.044C111.86 178.804 112.4 178.684 112.976 178.684C113.576 178.684 114.116 178.804 114.596 179.044C115.076 179.26 115.316 179.632 115.316 180.16V203.488C115.316 203.992 115.076 204.376 114.596 204.64C114.116 204.88 113.576 205 112.976 205C112.424 205 111.908 204.892 111.428 204.676C110.972 204.46 110.6 204.076 110.312 203.524L102.536 189.052V203.488C102.536 203.992 102.296 204.376 101.816 204.64C101.336 204.88 100.796 205 100.196 205ZM132.361 205C131.761 205 131.221 204.88 130.741 204.64C130.261 204.376 130.021 203.992 130.021 203.488V182.896H124.729C124.273 182.896 123.913 182.68 123.649 182.248C123.385 181.816 123.253 181.324 123.253 180.772C123.253 180.268 123.373 179.8 123.613 179.368C123.853 178.912 124.225 178.684 124.729 178.684H139.957C140.485 178.684 140.857 178.912 141.073 179.368C141.313 179.8 141.433 180.268 141.433 180.772C141.433 181.324 141.301 181.816 141.037 182.248C140.797 182.68 140.437 182.896 139.957 182.896H134.701V203.488C134.701 203.992 134.449 204.376 133.945 204.64C133.465 204.88 132.937 205 132.361 205ZM151.384 205C150.88 205 150.412 204.88 149.98 204.64C149.548 204.376 149.332 203.992 149.332 203.488V180.196C149.332 179.692 149.548 179.32 149.98 179.08C150.412 178.816 150.88 178.684 151.384 178.684H164.2C164.728 178.684 165.1 178.9 165.316 179.332C165.556 179.764 165.676 180.22 165.676 180.7C165.676 181.276 165.544 181.768 165.28 182.176C165.04 182.584 164.68 182.788 164.2 182.788H154.012V189.988H159.484C159.964 189.988 160.324 190.18 160.564 190.564C160.828 190.924 160.96 191.356 160.96 191.86C160.96 192.268 160.84 192.676 160.6 193.084C160.384 193.468 160.012 193.66 159.484 193.66H154.012V200.896H164.2C164.68 200.896 165.04 201.1 165.28 201.508C165.544 201.916 165.676 202.408 165.676 202.984C165.676 203.464 165.556 203.92 165.316 204.352C165.1 204.784 164.728 205 164.2 205H151.384ZM188.258 205.18C187.946 205.18 187.634 205.084 187.322 204.892C187.034 204.7 186.806 204.424 186.638 204.064L181.526 194.128H178.502V203.488C178.502 203.992 178.262 204.376 177.782 204.64C177.302 204.88 176.762 205 176.162 205C175.586 205 175.046 204.88 174.542 204.64C174.062 204.376 173.822 203.992 173.822 203.488V180.16C173.822 179.752 173.954 179.404 174.218 179.116C174.506 178.828 174.878 178.684 175.334 178.684H182.462C184.046 178.684 185.474 178.912 186.746 179.368C188.042 179.824 189.074 180.604 189.842 181.708C190.61 182.788 190.994 184.288 190.994 186.208C190.994 187.6 190.79 188.788 190.382 189.772C189.974 190.732 189.41 191.512 188.69 192.112C187.994 192.688 187.19 193.12 186.278 193.408L191.03 202.156C191.078 202.252 191.114 202.36 191.138 202.48C191.162 202.576 191.174 202.66 191.174 202.732C191.174 203.116 191.03 203.5 190.742 203.884C190.454 204.268 190.082 204.58 189.626 204.82C189.194 205.06 188.738 205.18 188.258 205.18ZM178.502 190.456H182.462C183.638 190.456 184.574 190.168 185.27 189.592C185.966 189.016 186.314 188.032 186.314 186.64C186.314 185.2 185.966 184.204 185.27 183.652C184.574 183.076 183.638 182.788 182.462 182.788H178.502V190.456ZM202.023 205C201.447 205 200.907 204.88 200.403 204.64C199.923 204.376 199.683 203.992 199.683 203.488V180.16C199.683 179.656 199.923 179.284 200.403 179.044C200.907 178.804 201.447 178.684 202.023 178.684C202.599 178.684 203.067 178.744 203.427 178.864C203.811 178.984 204.159 179.224 204.471 179.584C204.807 179.92 205.155 180.448 205.515 181.168L212.463 194.596V180.16C212.463 179.632 212.703 179.26 213.183 179.044C213.687 178.804 214.227 178.684 214.803 178.684C215.403 178.684 215.943 178.804 216.423 179.044C216.903 179.26 217.143 179.632 217.143 180.16V203.488C217.143 203.992 216.903 204.376 216.423 204.64C215.943 204.88 215.403 205 214.803 205C214.251 205 213.735 204.892 213.255 204.676C212.799 204.46 212.427 204.076 212.139 203.524L204.363 189.052V203.488C204.363 203.992 204.123 204.376 203.643 204.64C203.163 204.88 202.623 205 202.023 205Z" fill="white"/>
<g filter="url(#filter0_d_18_30)">
<path d="M176.876 139.824H215.929C217.518 97.1496 184.525 96.3324 167.831 101.259C173.479 107.87 176.214 129.724 176.876 139.824Z" fill="#1D1D34"/>
<path d="M176.876 139.824H215.929C217.518 97.1496 184.525 96.3324 167.831 101.259C173.479 107.87 176.214 129.724 176.876 139.824Z" stroke="#000553" stroke-width="0.201488"/>
</g>
<g filter="url(#filter1_d_18_30)">
<path d="M126.077 76.1468C107.652 76.1468 92.7161 59.1935 92.7161 38.2804C92.7161 17.3674 107.652 0.414062 126.077 0.414062C144.501 0.414062 159.438 17.3674 159.438 38.2804C159.438 59.1935 144.501 76.1468 126.077 76.1468Z" fill="#F1B49B"/>
</g>
<g filter="url(#filter2_d_18_30)">
<path d="M183.278 92.3653C170.117 92.3653 159.447 80.2547 159.447 65.3154C159.447 50.3762 170.117 38.2656 183.278 38.2656C196.44 38.2656 207.109 50.3762 207.109 65.3154C207.109 80.2547 196.44 92.3653 183.278 92.3653Z" fill="#F1B49B"/>
</g>
<g filter="url(#filter3_d_18_30)">
<path d="M67.4813 92.3653C54.3197 92.3653 43.6501 80.2547 43.6501 65.3154C43.6501 50.3762 54.3197 38.2656 67.4813 38.2656C80.6429 38.2656 91.3125 50.3762 91.3125 65.3154C91.3125 80.2547 80.6429 92.3653 67.4813 92.3653Z" fill="#F1B49B"/>
</g>
<g filter="url(#filter4_d_18_30)">
<path d="M82.8781 153.09H170.469C170.469 139.665 168.123 131.696 164.737 119.447C156.178 92.1845 138.845 84.3088 133.624 84.976H116.414C84.8196 94.7934 80.892 134.475 82.8781 153.09Z" fill="#0F0F1B"/>
<path d="M82.8781 153.09H170.469C170.469 139.665 168.123 131.696 164.737 119.447C156.178 92.1845 138.845 84.3088 133.624 84.976H116.414C84.8196 94.7934 80.892 134.475 82.8781 153.09Z" fill="#1D1D34" stroke="#000553" stroke-width="0.201488"/>
</g>
<g filter="url(#filter5_d_18_30)">
<path d="M71.5416 98.6476C77.0478 98.1733 84.73 101.85 84.0695 102.196C79.8042 105.628 75.815 131.993 74.8702 145.517H35.5758C35.2797 141.91 36.9102 131.618 38.2454 120.341C39.3127 111.319 36.1606 102.119 34.4514 98.6476C30.1401 89.8916 23.8361 72.9618 23.8361 61.2866L23.3433 34.8399C26.8931 26.6686 29.8358 31.4353 30.863 34.8399C30.9446 39.4113 31.5287 51.1006 33.2046 61.2866C35.3005 74.0191 44.4225 87.3113 49.9695 92.9083C55.5165 98.5052 63.0734 99.3763 71.5416 98.6476Z" fill="#1D1D34"/>
<path d="M71.5416 98.6476C77.0478 98.1733 84.73 101.85 84.0695 102.196C79.8042 105.628 75.815 131.993 74.8702 145.517H35.5758C35.2797 141.91 36.9102 131.618 38.2454 120.341C39.3127 111.319 36.1606 102.119 34.4514 98.6476C30.1401 89.8916 23.8361 72.9618 23.8361 61.2866L23.3433 34.8399C26.8931 26.6686 29.8358 31.4353 30.863 34.8399C30.9446 39.4113 31.5287 51.1006 33.2046 61.2866C35.3005 74.0191 44.4225 87.3113 49.9695 92.9083C55.5165 98.5052 63.0734 99.3763 71.5416 98.6476Z" stroke="#000553" stroke-width="0.201488"/>
</g>
<defs>
<filter id="filter0_d_18_30" x="164.52" y="99.1016" width="54.7017" height="47.0923" filterUnits="userSpaceOnUse" color-interpolation-filters="sRGB">
<feFlood flood-opacity="0" result="BackgroundImageFix"/>
<feColorMatrix in="SourceAlpha" type="matrix" values="0 0 0 0 0 0 0 0 0 0 0 0 0 0 0 0 0 0 127 0" result="hardAlpha"/>
<feOffset dy="3.136"/>
<feGaussianBlur stdDeviation="1.568"/>
<feColorMatrix type="matrix" values="0 0 0 0 0 0 0 0 0 0 0 0 0 0 0 0 0 0 0.25 0"/>
<feBlend mode="normal" in2="BackgroundImageFix" result="effect1_dropShadow_18_30"/>
<feBlend mode="normal" in="SourceGraphic" in2="effect1_dropShadow_18_30" result="shape"/>
</filter>
<filter id="filter1_d_18_30" x="89.5827" y="0.414062" width="72.9908" height="82.0064" filterUnits="userSpaceOnUse" color-interpolation-filters="sRGB">
<feFlood flood-opacity="0" result="BackgroundImageFix"/>
<feColorMatrix in="SourceAlpha" type="matrix" values="0 0 0 0 0 0 0 0 0 0 0 0 0 0 0 0 0 0 127 0" result="hardAlpha"/>
<feOffset dy="3.136"/>
<feGaussianBlur stdDeviation="1.568"/>
<feColorMatrix type="matrix" values="0 0 0 0 0 0 0 0 0 0 0 0 0 0 0 0 0 0 0.25 0"/>
<feBlend mode="normal" in2="BackgroundImageFix" result="effect1_dropShadow_18_30"/>
<feBlend mode="normal" in="SourceGraphic" in2="effect1_dropShadow_18_30" result="shape"/>
</filter>
<filter id="filter2_d_18_30" x="156.309" y="38.2656" width="53.9361" height="60.3736" filterUnits="userSpaceOnUse" color-interpolation-filters="sRGB">
<feFlood flood-opacity="0" result="BackgroundImageFix"/>
<feColorMatrix in="SourceAlpha" type="matrix" values="0 0 0 0 0 0 0 0 0 0 0 0 0 0 0 0 0 0 127 0" result="hardAlpha"/>
<feOffset dy="3.136"/>
<feGaussianBlur stdDeviation="1.568"/>
<feColorMatrix type="matrix" values="0 0 0 0 0 0 0 0 0 0 0 0 0 0 0 0 0 0 0.25 0"/>
<feBlend mode="normal" in2="BackgroundImageFix" result="effect1_dropShadow_18_30"/>
<feBlend mode="normal" in="SourceGraphic" in2="effect1_dropShadow_18_30" result="shape"/>
</filter>
<filter id="filter3_d_18_30" x="40.5124" y="38.2656" width="53.9361" height="60.3736" filterUnits="userSpaceOnUse" color-interpolation-filters="sRGB">
<feFlood flood-opacity="0" result="BackgroundImageFix"/>
<feColorMatrix in="SourceAlpha" type="matrix" values="0 0 0 0 0 0 0 0 0 0 0 0 0 0 0 0 0 0 127 0" result="hardAlpha"/>
<feOffset dy="3.136"/>
<feGaussianBlur stdDeviation="1.568"/>
<feColorMatrix type="matrix" values="0 0 0 0 0 0 0 0 0 0 0 0 0 0 0 0 0 0 0.25 0"/>
<feBlend mode="normal" in2="BackgroundImageFix" result="effect1_dropShadow_18_30"/>
<feBlend mode="normal" in="SourceGraphic" in2="effect1_dropShadow_18_30" result="shape"/>
</filter>
<filter id="filter4_d_18_30" x="79.2156" y="84.8359" width="94.4908" height="74.6236" filterUnits="userSpaceOnUse" color-interpolation-filters="sRGB">
<feFlood flood-opacity="0" result="BackgroundImageFix"/>
<feColorMatrix in="SourceAlpha" type="matrix" values="0 0 0 0 0 0 0 0 0 0 0 0 0 0 0 0 0 0 127 0" result="hardAlpha"/>
<feOffset dy="3.136"/>
<feGaussianBlur stdDeviation="1.568"/>
<feColorMatrix type="matrix" values="0 0 0 0 0 0 0 0 0 0 0 0 0 0 0 0 0 0 0.25 0"/>
<feBlend mode="normal" in2="BackgroundImageFix" result="effect1_dropShadow_18_30"/>
<feBlend mode="normal" in="SourceGraphic" in2="effect1_dropShadow_18_30" result="shape"/>
</filter>
<filter id="filter5_d_18_30" x="20.1062" y="30.2266" width="67.2408" height="121.663" filterUnits="userSpaceOnUse" color-interpolation-filters="sRGB">
<feFlood flood-opacity="0" result="BackgroundImageFix"/>
<feColorMatrix in="SourceAlpha" type="matrix" values="0 0 0 0 0 0 0 0 0 0 0 0 0 0 0 0 0 0 127 0" result="hardAlpha"/>
<feOffset dy="3.136"/>
<feGaussianBlur stdDeviation="1.568"/>
<feColorMatrix type="matrix" values="0 0 0 0 0 0 0 0 0 0 0 0 0 0 0 0 0 0 0.25 0"/>
<feBlend mode="normal" in2="BackgroundImageFix" result="effect1_dropShadow_18_30"/>
<feBlend mode="normal" in="SourceGraphic" in2="effect1_dropShadow_18_30" result="shape"/>
</filter>
</defs>
</svg>
