<svg width="288" height="288" viewBox="0 0 288 288" fill="none" xmlns="http://www.w3.org/2000/svg">
<g filter="url(#filter0_d_9_11)">
<path d="M190.861 188.857H222.689C223.984 156.85 197.095 156.238 183.489 159.932C188.092 164.891 190.322 181.281 190.861 188.857Z" fill="#1D1D34"/>
<path d="M190.861 188.857H222.689C223.984 156.85 197.095 156.238 183.489 159.932C188.092 164.891 190.322 181.281 190.861 188.857Z" stroke="#000553" stroke-width="0.201488"/>
</g>
<g filter="url(#filter1_d_9_11)">
<path d="M149.452 141.096C134.436 141.096 122.263 128.381 122.263 112.697C122.263 97.0119 134.436 84.2969 149.452 84.2969C164.468 84.2969 176.641 97.0119 176.641 112.697C176.641 128.381 164.468 141.096 149.452 141.096Z" fill="#F1B49B"/>
</g>
<g filter="url(#filter2_d_9_11)">
<path d="M196.07 153.27C185.343 153.27 176.647 144.187 176.647 132.983C176.647 121.778 185.343 112.695 196.07 112.695C206.796 112.695 215.492 121.778 215.492 132.983C215.492 144.187 206.796 153.27 196.07 153.27Z" fill="#F1B49B"/>
</g>
<g filter="url(#filter3_d_9_11)">
<path d="M101.687 153.27C90.9602 153.27 82.2645 144.187 82.2645 132.983C82.2645 121.778 90.9602 112.695 101.687 112.695C112.414 112.695 121.109 121.778 121.109 132.983C121.109 144.187 112.414 153.27 101.687 153.27Z" fill="#F1B49B"/>
</g>
<g filter="url(#filter4_d_9_11)">
<path d="M114.246 198.81H185.633C185.633 188.741 183.721 182.764 180.961 173.577C173.986 153.131 159.859 147.224 155.604 147.724H141.578C115.829 155.087 112.628 184.849 114.246 198.81Z" fill="#0F0F1B"/>
<path d="M114.246 198.81H185.633C185.633 188.741 183.721 182.764 180.961 173.577C173.986 153.131 159.859 147.224 155.604 147.724H141.578C115.829 155.087 112.628 184.849 114.246 198.81Z" fill="#1D1D34" stroke="#000553" stroke-width="0.201488"/>
</g>
<g filter="url(#filter5_d_9_11)">
<path d="M105.015 157.99C109.503 157.634 115.764 160.391 115.225 160.651C111.749 163.225 108.498 182.998 107.728 193.142H75.703C75.4616 190.437 76.7905 182.717 77.8787 174.259C78.7485 167.493 76.1796 160.593 74.7866 157.99C71.2729 151.423 66.1351 138.725 66.1351 129.969L65.7335 110.134C68.6266 104.005 71.0249 107.58 71.862 110.134C71.9286 113.562 72.4046 122.329 73.7704 129.969C75.4786 139.518 82.913 149.487 87.4338 153.685C91.9547 157.883 98.1135 158.536 105.015 157.99Z" fill="#1D1D34"/>
<path d="M105.015 157.99C109.503 157.634 115.764 160.391 115.225 160.651C111.749 163.225 108.498 182.998 107.728 193.142H75.703C75.4616 190.437 76.7905 182.717 77.8787 174.259C78.7485 167.493 76.1796 160.593 74.7866 157.99C71.2729 151.423 66.1351 138.725 66.1351 129.969L65.7335 110.134C68.6266 104.005 71.0249 107.58 71.862 110.134C71.9286 113.562 72.4046 122.329 73.7704 129.969C75.4786 139.518 82.913 149.487 87.4338 153.685C91.9547 157.883 98.1135 158.536 105.015 157.99Z" stroke="#000553" stroke-width="0.201488"/>
</g>
<defs>
<filter id="filter0_d_9_11" x="180.169" y="158.289" width="45.8033" height="36.9439" filterUnits="userSpaceOnUse" color-interpolation-filters="sRGB">
<feFlood flood-opacity="0" result="BackgroundImageFix"/>
<feColorMatrix in="SourceAlpha" type="matrix" values="0 0 0 0 0 0 0 0 0 0 0 0 0 0 0 0 0 0 127 0" result="hardAlpha"/>
<feOffset dy="3.136"/>
<feGaussianBlur stdDeviation="1.568"/>
<feColorMatrix type="matrix" values="0 0 0 0 0 0 0 0 0 0 0 0 0 0 0 0 0 0 0.25 0"/>
<feBlend mode="normal" in2="BackgroundImageFix" result="effect1_dropShadow_9_11"/>
<feBlend mode="normal" in="SourceGraphic" in2="effect1_dropShadow_9_11" result="shape"/>
</filter>
<filter id="filter1_d_9_11" x="119.13" y="84.2969" width="60.647" height="63.0689" filterUnits="userSpaceOnUse" color-interpolation-filters="sRGB">
<feFlood flood-opacity="0" result="BackgroundImageFix"/>
<feColorMatrix in="SourceAlpha" type="matrix" values="0 0 0 0 0 0 0 0 0 0 0 0 0 0 0 0 0 0 127 0" result="hardAlpha"/>
<feOffset dy="3.136"/>
<feGaussianBlur stdDeviation="1.568"/>
<feColorMatrix type="matrix" values="0 0 0 0 0 0 0 0 0 0 0 0 0 0 0 0 0 0 0.25 0"/>
<feBlend mode="normal" in2="BackgroundImageFix" result="effect1_dropShadow_9_11"/>
<feBlend mode="normal" in="SourceGraphic" in2="effect1_dropShadow_9_11" result="shape"/>
</filter>
<filter id="filter2_d_9_11" x="173.512" y="112.695" width="45.1158" height="46.8501" filterUnits="userSpaceOnUse" color-interpolation-filters="sRGB">
<feFlood flood-opacity="0" result="BackgroundImageFix"/>
<feColorMatrix in="SourceAlpha" type="matrix" values="0 0 0 0 0 0 0 0 0 0 0 0 0 0 0 0 0 0 127 0" result="hardAlpha"/>
<feOffset dy="3.136"/>
<feGaussianBlur stdDeviation="1.568"/>
<feColorMatrix type="matrix" values="0 0 0 0 0 0 0 0 0 0 0 0 0 0 0 0 0 0 0.25 0"/>
<feBlend mode="normal" in2="BackgroundImageFix" result="effect1_dropShadow_9_11"/>
<feBlend mode="normal" in="SourceGraphic" in2="effect1_dropShadow_9_11" result="shape"/>
</filter>
<filter id="filter3_d_9_11" x="79.1296" y="112.695" width="45.1158" height="46.8501" filterUnits="userSpaceOnUse" color-interpolation-filters="sRGB">
<feFlood flood-opacity="0" result="BackgroundImageFix"/>
<feColorMatrix in="SourceAlpha" type="matrix" values="0 0 0 0 0 0 0 0 0 0 0 0 0 0 0 0 0 0 127 0" result="hardAlpha"/>
<feOffset dy="3.136"/>
<feGaussianBlur stdDeviation="1.568"/>
<feColorMatrix type="matrix" values="0 0 0 0 0 0 0 0 0 0 0 0 0 0 0 0 0 0 0.25 0"/>
<feBlend mode="normal" in2="BackgroundImageFix" result="effect1_dropShadow_9_11"/>
<feBlend mode="normal" in="SourceGraphic" in2="effect1_dropShadow_9_11" result="shape"/>
</filter>
<filter id="filter4_d_9_11" x="110.661" y="147.594" width="78.2095" height="57.5923" filterUnits="userSpaceOnUse" color-interpolation-filters="sRGB">
<feFlood flood-opacity="0" result="BackgroundImageFix"/>
<feColorMatrix in="SourceAlpha" type="matrix" values="0 0 0 0 0 0 0 0 0 0 0 0 0 0 0 0 0 0 127 0" result="hardAlpha"/>
<feOffset dy="3.136"/>
<feGaussianBlur stdDeviation="1.568"/>
<feColorMatrix type="matrix" values="0 0 0 0 0 0 0 0 0 0 0 0 0 0 0 0 0 0 0.25 0"/>
<feBlend mode="normal" in2="BackgroundImageFix" result="effect1_dropShadow_9_11"/>
<feBlend mode="normal" in="SourceGraphic" in2="effect1_dropShadow_9_11" result="shape"/>
</filter>
<filter id="filter5_d_9_11" x="62.4968" y="106.648" width="55.9986" height="92.8658" filterUnits="userSpaceOnUse" color-interpolation-filters="sRGB">
<feFlood flood-opacity="0" result="BackgroundImageFix"/>
<feColorMatrix in="SourceAlpha" type="matrix" values="0 0 0 0 0 0 0 0 0 0 0 0 0 0 0 0 0 0 127 0" result="hardAlpha"/>
<feOffset dy="3.136"/>
<feGaussianBlur stdDeviation="1.568"/>
<feColorMatrix type="matrix" values="0 0 0 0 0 0 0 0 0 0 0 0 0 0 0 0 0 0 0.25 0"/>
<feBlend mode="normal" in2="BackgroundImageFix" result="effect1_dropShadow_9_11"/>
<feBlend mode="normal" in="SourceGraphic" in2="effect1_dropShadow_9_11" result="shape"/>
</filter>
</defs>
</svg>
